<?xml version="1.0" standalone="no"?>
<!DOCTYPE svg PUBLIC "-//W3C//DTD SVG 1.1//EN" "http://www.w3.org/Graphics/SVG/1.1/DTD/svg11.dtd" >
<svg xmlns="http://www.w3.org/2000/svg">
<metadata>
This is a custom SVG font generated by IcoMoon.
<iconset grid="16"></iconset>
</metadata>
<defs>
<font id="cloggs-rwd" horiz-adv-x="512" >
<font-face units-per-em="512" ascent="480" descent="-32" />
<missing-glyph horiz-adv-x="512" />
<glyph class="hidden" unicode="&#xf000;" d="M0,480L 512 -32L0 -32 z" horiz-adv-x="0" />
<glyph unicode="&#xe000;" d="M 306.649,16.402l 1.33,8.141c 21.749,0.489, 55.971,17.94, 55.971,39.347L 347.343,214.365
	c0,21.758-18.1,39.363-40.19,39.363L 204.846,253.729 c-22.090,0-40.191-17.605-40.191-39.363L 148.049,63.89
	c0-21.408, 34.213-38.86, 55.97-39.347l 1.33-8.141L 306.649,16.402 z M 181.264,356.862c0-41.356, 33.379-74.735, 74.737-74.735
	c 41.356,0, 74.736,33.379, 74.736,74.735c0,41.358-33.38,74.737-74.736,74.737C 214.643,431.598, 181.264,398.22, 181.264,356.862z"  />
<glyph unicode="&#xe001;" d="M 94.478,430.855L 40.525,430.855 l0-25.856 l 71.881,0 l 36.025-192.723l-13.956-78.775l 287.877,0 l0,38.786 
	L 185.323,172.286 l0,44.989 l 250.127,47.749L 435.45,361.213 l 36.025,34.821l-17.238,17.928l-36.024-34.821L 166.36,379.141 L 130.512,430.855L 94.478,430.855 z
	 M 108.964,60.744c0-24.123, 20.167-43.599, 44.989-43.599s 44.989,19.478, 44.989,43.599c0,23.971-20.167,43.449-44.989,43.449
	S 108.964,84.715, 108.964,60.744z M 288.759,60.744c0-24.123, 20.167-43.599, 44.98-43.599c 24.83,0, 44.996,19.478, 44.996,43.599
	c0,23.971-20.166,43.449-44.996,43.449C 308.926,104.193, 288.759,84.715, 288.759,60.744z"  />
<glyph unicode="&#xe002;" d="M 49.154,376.237L 462.845,376.237L 462.845,293.499L 49.154,293.499zM 49.154,265.919L 462.845,265.919L 462.845,183.182L 49.154,183.182zM 49.154,155.601L 462.845,155.601L 462.845,72.864L 49.154,72.864z"  />
<glyph unicode="&#xe003;" d="M 184.336,354.010c-40.827-50.157-38.431-117.032, 1.081-161.104l-16.072-19.762
	l-0.86,0.647c-2.174,1.305-5.216,0.871-6.955-1.293l-78.166-96.623c-1.728-1.951-1.293-4.771, 0.87-6.074l 4.994-3.042l 38.654-24.32
	l 4.771-3.043c 1.961-1.304, 5.216-0.647, 6.732,1.305l 77.519,95.543c 1.718,1.951, 1.293,4.771-0.87,6.074l-0.87,0.647l 14.546,18.023
	C 287.237,135.583, 359.116,152.302, 400.165,202.894c 46.012,56.666, 37.551,136.136-20.419,178.691
	C 320.484,425.221, 232.32,413.283, 184.336,354.010z M 224.284,326c 30.617,37.774, 87.061,45.81, 125.057,18.235
	c 37.552-27.14, 43.659-78.591, 13.889-115.293c-29.94-36.692-84.667-45.587-123.107-19.539
	C 201.055,235.674, 193.666,288.226, 224.284,326z"  />
<glyph unicode="&#xe004;" d="M 256,65c-87.901,0-159,71.097-159,158.999
	c0,87.901, 71.099,159, 159,159c 87.914,0, 159.013-71.099, 159.013-159
	C 415.013,136.098, 343.914,65, 256,65z M 256,430.833c-114.273,0-206.833-92.56-206.833-206.833
	c0-114.273, 92.559-206.833, 206.833-206.833s 206.832,92.558, 206.832,206.833C 462.832,338.272, 370.273,430.833, 256,430.833z
	 M 348.559,271.315l-15.754,15.768c-3.131,3.106-7.777,3.106-10.882,0L 226.258,191.43l-45.497,46.015
	c-2.841,2.841-7.499,2.841-10.592,0l-16.032-16.033c-2.84-2.841-2.84-7.751,0-10.59l 66.97-67.223
	c 2.827-2.853, 7.473-2.853, 10.604,0l 116.848,117.113C 351.665,263.55, 351.665,268.209, 348.559,271.315z"  />
<glyph unicode="&#xe005;" d="M 401.903,280.411c0-5.105-1.708-9.475-5.342-13.37
	c-3.657-3.644-8.027-5.355-12.893-5.355L 128.335,261.687 c-4.869,0-9.238,1.71-12.896,5.355c-3.634,3.895-5.343,8.263-5.343,13.37
	c0,5.106, 1.709,9.487, 5.343,13.133L 243.106,425.106c 3.657,3.644, 8.027,5.592, 12.895,5.592s 9.239-1.948, 12.895-5.592l 127.666-131.562
	C 400.195,289.899, 401.903,285.517, 401.903,280.411z M 401.903,167.587c0-5.116-1.708-9.486-5.342-13.131L 268.896,22.894
	c-3.655-3.643-8.027-5.592-12.895-5.592s-9.238,1.949-12.895,5.592L 115.439,154.456c-3.634,3.644-5.343,8.015-5.343,13.131
	c0,5.106, 1.709,9.477, 5.343,13.371c 3.657,3.645, 8.027,5.355, 12.896,5.355l 255.333,0 c 4.866,0, 9.236-1.709, 12.893-5.355
	C 400.195,177.063, 401.903,172.692, 401.903,167.587z"  />
<glyph unicode="&#xe006;" d="M 402.306,61.11c0-5.119-1.714-9.502-5.357-13.408
	c-3.667-3.655-8.048-5.37-12.93-5.37L 127.983,42.333 c-4.881,0-9.263,1.715-12.93,5.37c-3.643,3.906-5.357,8.288-5.357,13.408
	s 1.715,9.514, 5.357,13.169l 128.018,131.922c 3.667,3.655, 8.048,5.609, 12.93,5.609s 9.264-1.953, 12.93-5.609l 128.017-131.922
	C 400.591,70.623, 402.306,66.229, 402.306,61.11z M 402.306,386.891c0-5.131-1.714-9.513-5.357-13.168l-128.017-131.923
	c-3.667-3.655-8.048-5.608-12.93-5.608s-9.263,1.953-12.93,5.608L 115.053,373.723c-3.643,3.655-5.357,8.037-5.357,13.168
	c0,5.12, 1.715,9.502, 5.357,13.408c 3.667,3.655, 8.049,5.37, 12.93,5.37L 384.017,405.668 c 4.882,0, 9.264-1.714, 12.93-5.37
	C 400.591,396.393, 402.306,392.011, 402.306,386.891z"  />
<glyph unicode="&#xe007;" d="M 118.81,258.295L 118.81,224L 153.105,224L 153.105,189.705L 187.419,189.705L 187.419,155.409L 221.713,155.409L 221.713,121.113L 290.303,121.113L 290.303,155.409L 324.599,155.409L 324.599,189.705L 358.895,189.705L 358.895,224L 393.19,224L 393.19,258.295L 427.486,258.295L 427.486,292.59L 461.781,292.59L 461.781,326.886L 50.219,326.886L 50.219,292.59L 84.515,292.59L 84.515,258.295 z"  />
<glyph unicode="&#xe008;" d="M 328.307,167.741l-16.214-16.221c-2.932-2.94-7.787-2.94-10.718,0l-45.725,45.734
	l-45.733-45.734c-2.933-2.94-7.77-2.94-10.701,0l-16.221,16.221c-2.933,2.933-2.933,7.771,0,10.702l 45.741,45.733l-45.741,45.733
	c-2.933,2.932-2.933,7.769,0,10.702l 16.221,16.221c 2.932,2.932, 7.769,2.932, 10.701,0l 45.733-45.733l 45.725,45.733
	c 2.932,2.932, 7.787,2.932, 10.718,0l 16.214-16.221c 2.932-2.933, 2.932-7.77,0-10.702l-45.742-45.733l 45.742-45.733
	C 331.24,175.512, 331.24,170.675, 328.307,167.741z M 256.004,383.303c-88.028,0-159.303-71.275-159.303-159.303
	c0-88.011, 71.276-159.285, 159.303-159.285c 88.012,0, 159.286,71.275, 159.286,159.285
	C 415.291,312.029, 344.016,383.303, 256.004,383.303z M 256.004,16.898c-114.429,0-207.109,92.681-207.109,207.102
	c0,114.421, 92.679,207.101, 207.109,207.101c 114.405,0, 207.101-92.679, 207.101-207.101
	C 463.105,109.58, 370.408,16.898, 256.004,16.898z"  />
<glyph unicode="&#xe009;" d="M 49.030,224c0-114.295, 92.675-206.97, 206.97-206.97
	c 114.295,0, 206.97,92.675, 206.97,206.97c0,114.295-92.675,206.97-206.97,206.97
	C 141.705,430.97, 49.030,338.295, 49.030,224z M 345.233,331.318l0-20.853 L 156.348,224l 188.885-86.463l0-20.856 L 133.351,214.036
	l0,19.926 L 345.233,331.318z"  />
<glyph unicode="&#xe00a;" d="M 256,430.97c-114.295,0-206.97-92.675-206.97-206.97
	c0-114.295, 92.675-206.97, 206.97-206.97c 114.294,0, 206.97,92.675, 206.97,206.97
	C 462.97,338.295, 370.294,430.97, 256,430.97z M 378.649,233.964l0-19.926 L 166.768,116.681l0,20.856 L 355.653,224L 166.768,310.466
	l0,20.853 L 378.649,233.964z"  />
<glyph unicode="&#xe00b;" d="M 113.342,430.876c-35.434,0-64.218-28.784-64.218-64.218l0-285.315 
	c0-35.434, 28.784-64.219, 64.218-64.219L 398.648,17.124 c 35.452,0, 64.228,28.785, 64.228,64.219L 462.876,366.658 c0,35.434-28.776,64.218-64.228,64.218
	L 113.342,430.876 z M 137.815,238.388L 137.815,340.754 l 102.533,0 l-34.178-34.186l 51.27-51.086l-34.185-34.178l-51.262,51.086L 137.815,238.388z
	 M 265.891,96.636c-30.936,0-60.081,12.051-82.022,34.001c-15.478,15.652-34.002,41.013-34.002,73.573l 44.429,0 
	c0-18.349, 13.132-34.353, 20.879-42.092c 13.492-13.678, 31.656-21.047, 50.717-21.047c 19.060,0, 37.243,7.369, 50.734,21.047
	c 13.492,13.493, 21.045,31.481, 21.045,50.549c0,19.244-7.554,37.235-21.045,50.726c-14.211,14.211-25.543,21.046-35.083,21.046l0,44.437 
	c 29.144,0, 51.807-19.429, 66.371-34.178c 21.959-21.774, 34.011-50.91, 34.011-82.031c0-30.945-12.051-60.089-34.011-82.032
	C 325.989,108.687, 296.827,96.636, 265.891,96.636z"  />
<glyph unicode="&#xe00c;" d="M 113.414,430.771c-35.416,0-64.185-28.77-64.185-64.186l0-285.17 
	c0-35.416, 28.769-64.185, 64.185-64.185l 285.162,0 c 35.433,0, 64.194,28.769, 64.194,64.185L 462.771,366.585 c0,35.417-28.761,64.186-64.194,64.186
	L 113.414,430.771 z M 213.017,78.718l0,69.585 l 77.854,0 l0-69.585 L 213.017,78.718 z M 293.225,192.709c-3.424-6.11-5.039-14.204-5.039-23.907l-72.639,0 l0,7.006 
	c0,12.229, 1.44,22.115, 4.32,29.664c 2.879,7.56, 7.006,14.566, 12.765,20.686c 5.567,6.286, 18.331,17.435, 38.295,33.080
	c 10.429,8.269, 15.821,15.82, 15.821,22.835c0,6.83-2.162,12.229-6.11,16.005c-3.951,3.776-10.061,5.751-18.349,5.751
	c-8.814,0-15.996-3.055-21.737-9.166c-5.759-6.119-9.552-16.724-11.168-31.825l-77.846,9.35
	c 2.696,27.866, 12.59,50.525, 30.026,67.426c 17.444,17.076, 44.063,25.705, 80.023,25.705c 28.042,0, 50.515-5.935, 67.777-17.436
	c 23.37-15.644, 35.047-36.504, 35.047-62.394c0-10.965-3.055-21.395-8.99-31.465c-6.286-10.070-18.682-22.291-37.383-36.681
	C 304.9,207.099, 296.631,199.006, 293.225,192.709z"  />
<glyph unicode="&#xe00d;" d="M 387.993,292.875l 0.176-9.016c0-91.59-68.531-197.259-193.831-197.259
	c-38.404,0-74.291,11.543-104.401,31.194c 5.407-0.537, 10.821-0.898, 16.226-0.898c 31.916,0, 61.303,10.996, 84.75,29.574
	c-29.934,0.721-55,20.733-63.654,48.141c 4.147-0.722, 8.294-1.083, 12.801-1.083c 6.136,0, 12.088,0.724, 17.855,2.343
	c-31.193,6.314-54.639,34.443-54.639,67.978l0,0.898 c 9.201-5.23, 19.66-8.294, 30.84-8.654c-18.215,12.439-30.294,33.544-30.294,57.702
	c0,12.625, 3.424,24.52, 9.191,34.803c 33.721-41.838, 83.843-69.607, 140.453-72.485c-1.074,5.229-1.796,10.45-1.796,15.865
	c0,38.227, 30.655,69.421, 68.163,69.421c 19.651,0, 37.311-8.479, 49.761-22.002c 15.514,3.063, 30.11,8.84, 43.282,16.772
	c-5.055-16.050-15.865-29.748-29.937-38.228c 13.701,1.62, 26.855,5.406, 39.126,10.821
	C 412.874,314.876, 401.341,302.612, 387.993,292.875z M 394.296,431.357L 117.705,431.357 c-37.866,0-69.060-31.193-69.060-69.060l0-276.592 
	c0-38.051, 31.193-69.061, 69.060-69.061l 276.592,0 c 38.034,0, 69.061,31.009, 69.061,69.061L 463.357,362.295 
	C 463.357,400.163, 432.33,431.357, 394.296,431.357z"  />
<glyph unicode="&#xe00e;" d="M 401.066,223.999l-67.385,0 l0-181.3 L 256,42.699 l0,181.3 l-37.485,0 l0,59.29 l 37.485,0 l0,38.567 
	c0,52.435, 22.526,83.434, 84.156,83.434l 70.993,0 l0-64.156 l-58.004,0 c-17.142,0-19.288-9.010-19.288-25.773l-0.176-32.073l 77.663,0 
	L 401.066,223.999z M 394.218,431.241L 117.781,431.241 c-37.845,0-69.021-31.176-69.021-69.022l0-276.439 c0-38.031, 31.176-69.021, 69.021-69.021
	l 276.439,0 c 38.013,0, 69.022,30.99, 69.022,69.021L 463.241,362.218 C 463.241,400.065, 432.232,431.241, 394.218,431.241z"  />
<glyph unicode="&#xe00f;" d="M 113.185,431.105c-35.473,0-64.29-28.816-64.29-64.29l0-285.632 
	c0-35.473, 28.816-64.289, 64.29-64.289l 285.622,0 c 35.492,0, 64.299,28.816, 64.299,64.289L 463.106,366.815 c0,35.473-28.807,64.29-64.299,64.29
	L 113.185,431.105 z M 189.363,343.583c 56.366,22.151, 137.409,12.962, 177.402-34.215c 21.244-25.396, 27.364-62.32, 13.136-91.848
	c-19.996-41.788-70.049-64.836-116.513-51.153c 3.781-27.374-5.946-60.685-36.019-70.77c-14.421-4.863-30.258-2.708-43.765,3.236
	c-14.95,6.305-6.842,31.34-8.109,44.127c 9.004-1.804, 17.648-11.168, 27.559-6.665c 8.45,3.604, 8.644,21.615, 9.013,29.352
	c 0.879,25.221-0.915,50.792-0.915,76.003l0,25.395 l0,10.438 c0,4.327, 0.176,3.605, 4.327,4.503c 10.622,1.626, 21.79,1.266, 32.606,0.369
	l 9.004-0.906c 3.94-0.537, 3.587,0.361, 3.587-4.318l0-22.697 l0-45.198 c0-5.769, 4.677-5.585, 10.094-6.851
	c 3.236-0.72, 6.296-1.257, 9.533-1.618c 5.944-0.536, 11.89-0.36, 17.657,0.546c 9.902,1.793, 19.276,6.119, 26.663,12.6
	c 14.033,12.426, 17.27,31.34, 12.24,48.444c-12.24,41.603-67.182,58.354-107.703,48.628
	c-43.396-10.447-78.333-57.273-45.374-95.093c-9.911-8.283-18.379-18.369-29.898-24.665c-2.7-1.627-5.769-2.884-8.644-3.967
	l-4.863,5.399c-2.884,3.965-5.408,8.283-7.562,12.609c-9.55,19.989-10.807,43.221-7.026,64.475
	C 132.276,304.32, 155.331,330.076, 189.363,343.583z"  />
<glyph unicode="&#xe010;" d="M 256.001,327.417c-28.087,0-50.836-23.185-50.836-51.709
	c0-28.521, 22.75-51.709, 50.836-51.709s 50.836,23.186, 50.836,51.709C 306.837,304.232, 284.088,327.417, 256.001,327.417z
	 M 256.001,172.291c-56.062,0-101.568,46.266-101.568,103.416s 45.506,103.416, 101.568,103.416
	c 56.068,0, 101.568-46.266, 101.568-103.416S 312.068,172.291, 256.001,172.291z M 256.001,430.834
	c-84.149,0-152.405-69.45-152.405-155.125c0-85.673, 152.405-258.544, 152.405-258.544s 152.404,172.869, 152.404,258.544
	C 408.405,361.384, 340.154,430.834, 256.001,430.834z"  />
<glyph unicode="&#xe011;" d="M 491.139,174.666c-8.173,31.213-45.774,13.195-45.774,13.195l-16.55-17.405L 428.815,391.588 
	L 135.535,391.588 l0-190.356 c-46.916-25.236-115.217-65.952-115.217-65.952l 71.961-78.869c0,0, 14.663,24.61, 78.455,26.288
	c 76.88,1.995, 101.287-9.84, 122.552-9.84c 58.857,0, 119.401,9.84, 119.401,9.84S 499.312,143.453, 491.139,174.666z M 308.044,135.28
	c-58.234,8.592-36.026,16.448, 19.587,13.093c 31.004-1.78, 42.532-1.57, 58.867,26.294c 16.335,27.966-31.106,26.288-65.361,26.288
	c-34.358,0-127.575,21.368-143.915,19.798c-3.082-0.318-10.589-3.558-20.739-8.607L 156.482,360.166 l 73.32,0 l0-73.32 l 104.744,0 l0,73.32 l 73.32,0 
	l0-209.937 C 396.429,145.015, 355.14,128.35, 308.044,135.28z"  />
<glyph unicode="&#xe012;" d="M 439.536,390.423L 72.46,390.423 c-23.419,0-42.32-18.661-42.32-41.605l0-249.635 c0-22.938, 18.9-41.605, 42.32-41.605
	l 367.076,0 c 23.426,0, 42.325,18.667, 42.325,41.605L 481.86,348.818 C 481.861,371.761, 462.962,390.423, 439.536,390.423z M 455.557,70.771
	L 313.182,210.813l-32.669-29.936l0-28.264 l-52.466,0 l0,29.922 l-30.769,28.194L 54.99,70.771L 42.219,83.4L 184.096,222.806L 54.291,341.749
	l 21.5,23.463l 179.394-164.381l 179.394,164.381l 21.5-23.463L 326.364,222.891l 141.963-139.49L 455.557,70.771z"  />
<glyph unicode="&#xe013;" d="M 84.516,189.705L 84.516,155.41L 50.219,155.41L 50.219,121.115L 461.782,121.115L 461.782,155.41L 427.486,155.41L 427.486,189.705L 393.19,189.705L 393.19,224L 358.895,224L 358.895,258.296L 324.6,258.296L 324.6,292.592L 290.304,292.592L 290.304,326.886L 221.713,326.886L 221.713,292.592L 187.419,292.592L 187.419,258.296L 153.106,258.296L 153.106,224L 118.811,224L 118.811,189.705 z"  />
<glyph unicode="&#xe014;" d="M 290.295,52.516L 324.591,52.516L 324.591,18.219L 358.886,18.219L 358.886,429.782L 324.591,429.782L 324.591,395.486L 290.295,395.486L 290.295,361.19L 256.001,361.19L 256.001,326.895L 221.705,326.895L 221.705,292.6L 187.409,292.6L 187.409,258.304L 153.115,258.304L 153.115,189.713L 187.409,189.713L 187.409,155.419L 221.705,155.419L 221.705,121.106L 256.001,121.106L 256.001,86.811L 290.295,86.811 z"  />
<glyph unicode="&#xe015;" d="M 221.705,86.811L 256.001,86.811L 256.001,121.106L 290.296,121.106L 290.296,155.419L 324.592,155.419L 324.592,189.713L 358.886,189.713L 358.886,258.304L 324.592,258.304L 324.592,292.6L 290.296,292.6L 290.296,326.895L 256.001,326.895L 256.001,361.19L 221.705,361.19L 221.705,395.486L 187.41,395.486L 187.41,429.782L 153.115,429.782L 153.115,18.219L 187.41,18.219L 187.41,52.516L 221.705,52.516 z"  />
<glyph unicode="&#xe016;" d="M 462.391,55.959L 95.292,224L 462.391,392.048L 462.391,432.574L 50.597,243.363L 50.597,204.637L 462.391,15.425 z"  />
<glyph unicode="&#xe017;" d="M 50.597,55.959L 417.697,224L 50.597,392.048L 50.597,432.574L 462.391,243.363L 462.391,204.637L 50.597,15.425 z"  />
<glyph unicode="&#xe018;" d="M 424.535,18.103L 256.492,385.203L 88.445,18.103L 47.92,18.103L 237.131,429.896L 275.857,429.896L 465.069,18.103 z"  />
<glyph unicode="&#xe019;" d="M 88.453,429.896L 256.496,62.797L 424.543,429.896L 465.069,429.896L 275.858,18.103L 237.132,18.103L 47.92,429.896 z"  />
<glyph unicode="&#xe01a;" d="M 328.598,338.028L 79.494,223.999L 328.598,109.968L 328.598,82.467L 49.166,210.861L 49.166,237.138L 328.598,365.534 	zM 462.835,338.028L 213.731,223.999L 462.835,109.968L 462.835,82.467L 183.403,210.861L 183.403,237.138L 462.835,365.534 	z"  />
<glyph unicode="&#xe01b;" d="M 183.403,338.028L 432.507,223.999L 183.403,109.968L 183.403,82.467L 462.835,210.861L 462.835,237.138L 183.403,365.534 	zM 49.165,338.028L 298.269,223.999L 49.165,109.968L 49.165,82.467L 328.598,210.861L 328.598,237.138L 49.165,365.534 	z"  />
<glyph unicode="&#xe01c;" d="M 141.973,151.403L 256.002,400.507L 370.033,151.403L 397.534,151.403L 269.139,430.835L 242.863,430.835L 114.467,151.403 	zM 141.973,17.165L 256.002,266.269L 370.033,17.165L 397.534,17.165L 269.139,296.598L 242.863,296.598L 114.467,17.165 	z"  />
<glyph unicode="&#xe01d;" d="M 370.028,296.598L 255.999,47.493L 141.968,296.598L 114.468,296.598L 242.862,17.165L 269.138,17.165L 397.534,296.598 	zM 370.028,430.835L 255.999,181.731L 141.968,430.835L 114.468,430.835L 242.862,151.403L 269.138,151.403L 397.534,430.835 	z"  />
<glyph unicode="&#xe01e;" d="M 451.308,72.308l-43.587-43.602c-7.882-7.907-20.93-7.907-28.811,0L 255.999,151.639l-122.934-122.935
	c-7.884-7.907-20.886-7.907-28.763,0l-43.605,43.602c-7.885,7.887-7.885,20.889,0,28.768L 183.649,224.009L 60.697,346.941
	c-7.885,7.882-7.885,20.885,0,28.769l 43.605,43.604c 7.88,7.882, 20.883,7.882, 28.763,0l 122.934-122.934l 122.911,122.934
	c 7.882,7.882, 20.93,7.882, 28.811,0l 43.587-43.604c 7.88-7.885, 7.88-20.888,0-28.769L 328.351,224.009l 122.957-122.933
	C 459.188,93.196, 459.188,80.194, 451.308,72.308z"  />
<glyph unicode="&#xe01f;" d="M 458.375,390.614l-37.035,26.504c-6.332,8.71-15.733,8.71-22.018,0L 205.781,166.566L 113.736,277.899
	c-5.749,7.968-15.174,7.968-21.431,0l-32.434-44.966c-5.746-7.967-5.746-21.738,0-29.702l 135.491-170.819
	c 5.72-8.002, 15.119-8.002, 21.454,0l 241.562,328.461C 464.657,368.838, 464.657,381.903, 458.375,390.614z"  />
<glyph unicode="&#xe020;" d="M 352.163,312.869c 7.935,6.647, 8.966,18.483, 2.315,26.415c-6.659,7.929-18.476,8.961-26.416,2.306
		c-7.932-6.663-8.964-18.485-2.316-26.406C 332.414,307.247, 344.226,306.212, 352.163,312.869z M 331.49,337.824
		c 4.427,3.716, 11.028,3.138, 14.738-1.287c 3.725-4.427, 3.141-11.020-1.285-14.736c-4.426-3.717-11.025-3.145-14.744,1.295
		C 326.491,327.516, 327.068,334.115, 331.49,337.824zM 280.185,367.633c 2.134,24.439-15.94,45.991-40.378,48.119c-24.437,2.144-45.997-15.933-48.131-40.377
		c-2.132-24.44, 15.94-45.992, 40.381-48.125C 256.499,325.109, 278.047,343.19, 280.185,367.633z M 203.712,374.82
		c 1.19,13.634, 13.218,23.729, 26.858,22.537c 13.651-1.192, 23.736-13.22, 22.548-26.868c-1.193-13.636-13.219-23.726-26.869-22.542
		C 212.612,349.143, 202.52,361.166, 203.712,374.82zM 164.909,353.114c-15.133,18.033-42.023,20.388-60.073,5.257c-18.032-15.132-20.388-42.027-5.251-60.062
		c 15.135-18.036, 42.030-20.386, 60.062-5.254C 177.689,308.184, 180.042,335.076, 164.909,353.114z M 108.136,306.088
		c-8.446,10.069-7.135,25.086, 2.939,33.536c 10.060,8.435, 25.082,7.124, 33.524-2.93c 8.448-10.079, 7.136-25.079-2.934-33.527
		C 131.595,294.723, 116.592,296.029, 108.136,306.088zM 90.467,260.534c-20.405,1.781-38.387-13.308-40.173-33.709c-1.786-20.404, 13.308-38.378, 33.702-40.167
		c 20.405-1.784, 38.398,13.303, 40.181,33.709C 125.955,240.768, 110.874,258.752, 90.467,260.534z M 84.461,196.705
		c-11.376,0.989-19.8,11.035-18.802,22.416c 1,11.389, 11.039,19.817, 22.419,18.818c 11.39-0.992, 19.816-11.032, 18.811-22.419
		C 105.901,204.132, 95.856,195.706, 84.461,196.705zM 110.609,144.496c-14.126-11.843-15.962-32.912-4.106-47.045c 11.847-14.126, 32.916-15.961, 47.040-4.104
		c 14.123,11.848, 15.967,32.907, 4.121,47.042C 145.811,154.514, 124.746,156.359, 110.609,144.496z M 147.444,100.036
		c-7.892-6.618-19.647-5.584-26.262,2.298c-6.614,7.888-5.591,19.656, 2.299,26.253c 7.887,6.624, 19.638,5.591, 26.259-2.294
		C 156.351,118.41, 155.329,106.663, 147.444,100.036zM 206.58,77.236c-1.434-16.398, 10.697-30.846, 27.084-32.285c 16.402-1.428, 30.85,10.693, 32.289,27.088
		c 1.428,16.395-10.694,30.854-27.093,32.284C 222.47,105.756, 208.017,93.623, 206.58,77.236z M 257.874,72.419
		c-0.802-9.145-8.871-15.921-18.020-15.116c-9.156,0.799-15.918,8.857-15.119,18.016c 0.804,9.143, 8.874,15.918, 18.020,15.126
		C 251.902,89.63, 258.667,81.563, 257.874,72.419zM 320.319,102.436c 9.213-10.989, 25.579-12.418, 36.558-3.208c 10.979,9.224, 12.415,25.582, 3.206,36.571
		c-9.219,10.977-25.595,12.412-36.571,3.199C 312.527,129.786, 311.102,113.411, 320.319,102.436z M 354.877,131.055
		c 5.138-6.134, 4.333-15.274-1.793-20.409c-6.119-5.147-15.259-4.339-20.411,1.78c-5.136,6.129-4.337,15.273, 1.791,20.411
		C 340.598,137.987, 349.733,137.191, 354.877,131.055zM 382.626,200.816c 12.309-1.083, 23.158,8.024, 24.226,20.331c 1.085,12.306-8.017,23.161-20.336,24.233
		c-12.308,1.085-23.15-8.027-24.231-20.338C 361.211,212.729, 370.309,201.898, 382.626,200.816z M 386.235,239.318
		c 6.874-0.599, 11.955-6.647, 11.359-13.525c-0.595-6.874-6.664-11.951-13.53-11.357c-6.876,0.609-11.954,6.66-11.352,13.534
		C 373.317,234.848, 379.372,239.924, 386.235,239.318z"  />
<glyph unicode="&#xe021;" d="M 280.854,430.595l0-182.519 l 175.528,0 l0-46.6 L 280.854,201.476 L 280.854,17.405 l-49.708,0 L 231.146,201.476 L 55.618,201.476 l0,46.6 l 175.528,0 L 231.146,430.595 L 280.854,430.595 z"  />
<glyph unicode="&#xe022;" d="M 55.618,248.076L 456.382,248.076L 456.382,201.476L 55.618,201.476z"  />
<glyph unicode="&#xe023;" d="M 197.513,429.993L 312.336,429.993L 312.336,315.17L 197.513,315.17zM 47.426,429.993L 162.249,429.993L 162.249,315.17L 47.426,315.17zM 350.611,429.993L 465.434,429.993L 465.434,315.17L 350.611,315.17zM 197.513,133.689L 312.336,133.689L 312.336,18.866L 197.513,18.866zM 47.426,133.689L 162.249,133.689L 162.249,18.866L 47.426,18.866zM 350.611,133.689L 465.434,133.689L 465.434,18.866L 350.611,18.866zM 197.513,281.411L 312.336,281.411L 312.336,166.588L 197.513,166.588zM 47.426,281.411L 162.249,281.411L 162.249,166.588L 47.426,166.588zM 350.611,281.411L 465.434,281.411L 465.434,166.588L 350.611,166.588z"  />
<glyph unicode="&#xe024;" d="M 197.513,429.993L 465.434,429.993L 465.434,315.17L 197.513,315.17zM 47.426,429.993L 162.249,429.993L 162.249,315.17L 47.426,315.17zM 197.513,133.689L 465.434,133.689L 465.434,18.866L 197.513,18.866zM 47.426,133.689L 162.249,133.689L 162.249,18.866L 47.426,18.866zM 197.513,281.411L 465.434,281.411L 465.434,166.588L 197.513,166.588zM 47.426,281.411L 162.249,281.411L 162.249,166.588L 47.426,166.588z"  />
<glyph unicode="&#xe025;" d="M 47.426,429.993L 237.508,429.993L 237.508,239.912L 47.426,239.912zM 275.352,429.993L 465.434,429.993L 465.434,239.912L 275.352,239.912zM 47.426,208.948L 237.508,208.948L 237.508,18.866L 47.426,18.866zM 275.352,208.948L 465.434,208.948L 465.434,18.866L 275.352,18.866z"  />
<glyph unicode="&#xe026;" d="M 232.716,327.322c 8.322,8.858, 18.734,13.287, 31.509,13.287c 12.013,0, 20.872-2.862, 26.599-8.336
		c 5.723-5.472, 8.857-13.299, 8.857-23.2c0-10.168-7.817-21.113-22.934-33.1c-28.939-22.679-47.442-38.841-55.512-47.952
		c-8.347-8.872-14.329-19.027-18.503-29.986c-4.175-10.942-6.262-25.273-6.262-43l0-10.156 l 105.296,0 
		c0,14.064, 2.342,25.797, 7.306,34.654c 4.938,9.126, 16.924,20.859, 35.965,35.71c 27.108,20.858, 45.078,38.574, 54.189,53.171
		c 8.602,14.597, 13.031,29.716, 13.031,45.611c0,37.528-16.925,67.767-50.802,90.444c-25.022,16.672-57.599,25.275-98.247,25.275
		c-52.128,0-90.713-12.509-116-37.262c-25.274-24.499-39.617-57.346-43.524-97.739l 112.843-13.554
		C 218.871,303.080, 224.369,318.453, 232.716,327.322zM 192.806,115.163L 305.661,115.163L 305.661,14.296L 192.806,14.296z"  />
<glyph unicode="&#xe027;" d="M 266.179,92.798c-32.219,0-62.921,12.458-85.724,35.574c-13.094,13.081-35.291,40.13-35.291,71.145L 70.072,199.517 
		c0-55.034, 31.311-97.9, 57.47-124.355c 37.087-37.1, 86.349-57.468, 138.638-57.468c 52.286,0, 101.579,20.37, 138.636,57.468
		c 37.115,37.088, 57.487,86.349, 57.487,138.653c0,52.601-20.372,101.847-57.487,138.65c-24.616,24.927-62.919,57.767-112.18,57.767
		l0-75.108 c 16.123,0, 35.278-11.554, 59.297-35.572c 22.803-22.803, 35.571-53.211, 35.571-85.739c0-32.232-12.769-62.635-35.571-85.441
		C 329.127,105.254, 298.394,92.798, 266.179,92.798zM 194.11,228.408L 251.892,286.177L 165.235,372.524L 223.003,430.307L 49.7,430.307L 49.7,257.284L 107.467,314.755 	z"  />
<glyph unicode="&#xe028;" d="M 398.647,430.876L 113.342,430.876 c-35.434,0-64.218-28.784-64.218-64.218l0-285.315 
	c0-35.434, 28.784-64.219, 64.218-64.219L 398.647,17.124 c 35.453,0, 64.229,28.785, 64.229,64.219L 462.876,366.658 
	C 462.876,402.092, 434.099,430.876, 398.647,430.876z M 129.475,223.997l-15.786,15.786c-2.854,2.855-2.854,7.562,0,10.415l 44.514,44.507
	l-44.514,44.506c-2.854,2.853-2.854,7.562,0,10.416l 15.786,15.786c 2.852,2.853, 7.561,2.853, 10.413,0l 44.508-44.507l 44.498,44.507
	c 2.853,2.853, 7.578,2.853, 10.43,0l 15.781-15.786c 2.852-2.854, 2.852-7.563,0-10.416l-44.516-44.506l 44.516-44.506
	c 2.852-2.852, 2.852-7.56,0-10.415l-15.781-15.786c-2.853-2.861-7.578-2.861-10.43,0l-44.498,44.507l-44.508-44.507
	C 137.034,221.135, 132.327,221.135, 129.475,223.997z M 347.912,130.638c-21.924-21.95-51.086-34-82.022-34
	c-30.936,0-60.081,12.051-82.022,34c-15.478,15.651-34.002,41.012-34.002,73.573l 44.429,0 c0-18.349, 13.132-34.352, 20.879-42.092
	c 13.492-13.676, 31.656-21.047, 50.717-21.047c 19.060,0, 37.243,7.369, 50.734,21.047c 13.494,13.494, 21.045,31.482, 21.045,50.549
	c0,19.244-7.553,37.235-21.045,50.726c-14.211,14.211-25.542,21.046-35.083,21.046l0,44.437 c 29.144,0, 51.808-19.429, 66.371-34.178
	c 21.959-21.774, 34.011-50.91, 34.011-82.031C 381.923,181.725, 369.872,152.581, 347.912,130.638z"  />
<glyph unicode="&#xe029;" d="M 398.647,430.876L 113.342,430.876 c-35.434,0-64.218-28.784-64.218-64.218l0-285.315 
	c0-35.434, 28.784-64.219, 64.218-64.219L 398.647,17.124 c 35.453,0, 64.229,28.785, 64.229,64.219L 462.876,366.658 
	C 462.876,402.092, 434.099,430.876, 398.647,430.876z M 256,410.956c 37.244,0, 67.305-30.060, 67.305-67.304
	c0-37.245-30.062-67.303-67.305-67.303c-37.245,0-67.304,30.060-67.304,67.303C 188.695,380.896, 218.756,410.956, 256,410.956z
	 M 302.813,44.376l-1.2-7.331L 210.386,37.044 l-1.198,7.331c-19.594,0.441-50.405,16.154-50.405,35.435l 14.956,135.513
	c0,19.594, 16.301,35.449, 36.195,35.449l 92.133,0 c 19.894,0, 36.192-15.855, 36.192-35.449l 14.959-135.513
	C 353.217,60.53, 322.398,44.816, 302.813,44.376z"  />
<glyph unicode="&#xe02a;" d="M 398.647,430.876L 113.342,430.876 c-35.434,0-64.218-28.784-64.218-64.218l0-285.315 
	c0-35.434, 28.784-64.219, 64.218-64.219L 398.647,17.124 c 35.453,0, 64.229,28.785, 64.229,64.219L 462.876,366.658 
	C 462.876,402.092, 434.099,430.876, 398.647,430.876z M 403.51,113.369c0-3.334-1.216-6.212-3.65-8.645
	c-2.434-2.434-5.31-3.649-8.645-3.649L 120.78,101.074 c-3.329,0-6.211,1.216-8.642,3.649c-2.432,2.434-3.649,5.311-3.649,8.645l0,24.585 
	c0,3.328, 1.217,6.213, 3.649,8.639c 2.432,2.434, 5.313,3.65, 8.642,3.65l 270.435,0 c 3.334,0, 6.211-1.217, 8.645-3.65
	c 2.434-2.427, 3.65-5.311, 3.65-8.639L 403.51,113.369 z M 403.51,211.707c0-3.328-1.216-6.212-3.65-8.645
	c-2.434-2.427-5.31-3.643-8.645-3.643L 120.78,199.418 c-3.329,0-6.211,1.217-8.642,3.643c-2.432,2.434-3.649,5.318-3.649,8.645L 108.489,236.291 
	c0,3.328, 1.217,6.212, 3.649,8.645c 2.432,2.43, 5.313,3.647, 8.642,3.647l 270.435,0 c 3.334,0, 6.211-1.217, 8.645-3.647
	c 2.434-2.434, 3.65-5.318, 3.65-8.645L 403.51,211.707 z M 403.51,310.049c0-3.329-1.216-6.21-3.65-8.641
	c-2.434-2.434-5.31-3.649-8.645-3.649L 120.78,297.759 c-3.329,0-6.211,1.215-8.642,3.649c-2.432,2.433-3.649,5.313-3.649,8.641l0,24.586 
	c0,3.329, 1.217,6.21, 3.649,8.641c 2.432,2.434, 5.313,3.649, 8.642,3.649l 270.435,0 c 3.334,0, 6.211-1.215, 8.645-3.649
	c 2.434-2.433, 3.65-5.313, 3.65-8.641L 403.51,310.049 z"  />
<glyph unicode="&#xe02b;" d="M 398.647,430.876L 113.342,430.876 c-35.434,0-64.218-28.784-64.218-64.218l0-285.315 
	c0-35.434, 28.784-64.219, 64.218-64.219L 398.647,17.124 c 35.453,0, 64.229,28.785, 64.229,64.219L 462.876,366.658 
	C 462.876,402.092, 434.099,430.876, 398.647,430.876z M 205.112,256.755l 0.032,0 l-0.032,67.887c0,28.093, 22.798,50.857, 50.887,50.857
	c 28.124,0, 50.888-22.765, 50.888-50.857l0-67.887 l0-8.491 c0-28.093-22.765-50.872-50.888-50.872c-28.089,0-50.887,22.779-50.887,50.864
	L 205.112,256.755 z M 357.776,239.795c0-32.568-18.32-91.926-84.816-100.625l0-35.081 l 50.888,0 c 9.383,0, 16.969-7.602, 16.969-16.961
	c0-9.383-7.585-16.969-16.969-16.969L 188.148,70.16 c-9.347,0-16.965,7.585-16.965,16.969c0,9.359, 7.617,16.961, 16.965,16.961l 50.89,0 
	l0,35.081 c-66.464,8.707-84.815,68.056-84.815,100.625l0,50.89 c0,9.362, 7.617,16.961, 16.961,16.964
	c 9.381,0, 16.965-7.602, 16.965-16.964l-0.003-50.89c 0.070-6.869, 2.513-67.849, 67.855-67.849c 67.086,0, 67.849,65.085, 67.849,67.849
	l0,50.89 c0,9.362, 7.617,16.964, 16.969,16.964c 9.374,0, 16.961-7.602, 16.961-16.964L 357.778,239.795 z"  />
<glyph unicode="&#xe02c;" d="M 398.647,430.876L 113.342,430.876 c-35.434,0-64.218-28.784-64.218-64.218l0-285.315 
	c0-35.434, 28.784-64.219, 64.218-64.219L 398.647,17.124 c 35.453,0, 64.229,28.785, 64.229,64.219L 462.876,366.658 
	C 462.876,402.092, 434.099,430.876, 398.647,430.876z M 377.166,327.857L 255.999,206.691l-34.617-17.31l 17.308,34.62L 359.857,345.166
	L 377.166,327.857z M 394.476,241.311L 290.619,137.453L 117.524,85.524l 51.929,173.094l 103.856,103.857l 51.929,0 l-103.856-103.857
	l-34.619-21.072l-26.8-73.783c 18.045-8.551, 27.252-17.757, 35.806-35.803l 73.776,26.802l 21.074,34.619l 103.857,103.856L 394.476,241.311 z"  />
<glyph unicode="&#xe02d;" d="M 255.999,276.244c-28.854,0-52.245-23.39-52.245-52.242c0-28.852, 23.393-52.246, 52.245-52.246
		c 28.853,0, 52.247,23.394, 52.247,52.246C 308.246,252.853, 284.852,276.244, 255.999,276.244zM 398.647,430.876L 113.342,430.876 c-35.434,0-64.218-28.784-64.218-64.218l0-285.315 
		c0-35.434, 28.784-64.219, 64.218-64.219L 398.647,17.124 c 35.453,0, 64.229,28.785, 64.229,64.219L 462.876,366.658 
		C 462.876,402.092, 434.099,430.876, 398.647,430.876z M 362.28,199.241c 4.475-7.741, 10.749-13.798, 18.007-17.941l-25.355-43.92
		c-23.596,13.501-53.617,5.518-67.133-17.896c-4.461-7.721-6.567-16.162-6.541-24.498l-50.716,0 
		c-0.141,27.158-22.051,49.126-49.062,49.126c-8.944,0-17.325-2.409-24.545-6.612l-25.356,43.916
		c 23.491,13.682, 31.587,43.674, 18.071,67.083c-4.496,7.783-10.815,13.86-18.114,18.011l 25.353,43.918
		c 23.614-13.593, 53.709-5.621, 67.246,17.83c 4.508,7.803, 6.609,16.338, 6.541,24.758l 50.712,0 c0-27.275, 21.963-49.388, 49.061-49.388
		c 8.991,0, 17.411,2.437, 24.659,6.684l 25.355-43.919C 356.888,252.739, 348.744,222.689, 362.28,199.241z"  />
<glyph unicode="&#xe02e;" d="M 398.647,430.876L 113.342,430.876 c-35.434,0-64.218-28.784-64.218-64.218l0-285.315 
	c0-35.434, 28.784-64.219, 64.218-64.219L 398.647,17.124 c 35.453,0, 64.229,28.785, 64.229,64.219L 462.876,366.658 
	C 462.876,402.092, 434.099,430.876, 398.647,430.876z M 140.815,155.401l 180.966-30.304l-6.061-36.194l-180.967,30.303L 140.815,155.401z
	 M 327.697,69.567L 111.073,69.567 l0,17.782 L 327.697,87.349 L 327.697,69.567 z M 335.53,159.126l-0.005,0.001l-13.748-34.017l-170.117,68.746l 13.748,34.023
	l 170.101-68.744L 184.324,263.065l 20.789,30.239l 151.203-103.939L 335.53,159.126z M 356.32,189.364L 231.199,323.567l 19.404,18.094
	l 16.471-2.758l 116.086-124.518L 356.32,189.364z M 392.375,209.207L 258.142,379.229l 13.957,11.020l 134.232-170.023L 392.375,209.207z"  />
<glyph unicode="&#xe02f;" d="M 384.845,323.112L 127.154,323.112 c-5.372,0-9.911-4.539-9.911-9.911l0-29.734 l 277.513,0 l0,29.734 
		C 394.755,318.573, 390.215,323.112, 384.845,323.112zM 398.647,430.876L 113.342,430.876 c-35.434,0-64.218-28.784-64.218-64.218l0-285.315 
		c0-35.434, 28.784-64.219, 64.218-64.219L 398.647,17.124 c 35.453,0, 64.229,28.785, 64.229,64.219L 462.876,366.658 
		C 462.876,402.092, 434.099,430.876, 398.647,430.876z M 414.578,134.8c0-16.354-13.381-29.734-29.734-29.734L 127.154,105.067 
		c-16.352,0-29.734,13.381-29.734,29.734L 97.421,313.201 c0,16.354, 13.383,29.734, 29.734,29.734l 257.69,0 c 16.354,0, 29.734-13.38, 29.734-29.734
		L 414.577,134.8 zM 117.244,134.8c0-5.37, 4.539-9.911, 9.911-9.911l 257.69,0 c 5.37,0, 9.911,4.541, 9.911,9.911L 394.755,224 
		L 117.244,224 L 117.244,134.8 z M 216.356,184.357l 19.821,0 l0-39.645 l-19.821,0 L 216.356,184.357 z M 176.711,184.357l 19.823,0 l0-39.645 l-19.823,0 L 176.711,184.357 z
		 M 137.066,184.357l 19.822,0 l0-39.645 l-19.822,0 L 137.066,184.357 z"  />
<glyph unicode="&#xe030;" d="M 115.625,268.335l 23.401-206.157c 1.252-9.788, 48.518-41.979, 116.973-42.019c 68.462,0.041, 115.748,32.232, 117.001,42.019
		l 23.398,206.157c-35.757-20.002-89.207-29.471-140.399-29.471C 204.806,238.864, 151.361,248.332, 115.625,268.335z M 323.25,395.737
		l-18.239,20.236c-7.034,10.001-14.673,11.869-29.561,11.869l-38.902,0 c-14.862,0-22.505-1.868-29.555-11.869L 188.774,395.737
		c-54.571-9.534-94.149-34.822-94.149-53.467l0-3.63 c0-32.827, 72.236-59.454, 161.374-59.454
		c 89.14,0, 161.376,26.627, 161.376,59.454l0,3.63 C 417.375,360.914, 377.819,386.202, 323.25,395.737z M 299.934,348.45l-26.584,28.431
		l-34.695,0 l-26.588-28.431l-36.097,0 c0,0, 39.538,47.139, 44.825,53.53c 4.033,4.883, 8.172,6.752, 13.527,6.752l 43.375,0 
		c 5.357,0, 9.472-1.868, 13.529-6.752c 5.267-6.39, 44.823-53.53, 44.823-53.53L 299.934,348.45 z"  />
<glyph unicode="&#xe031;" d="M 467.212,131.59c0-7.148-2.612-13.342-7.825-18.57c-5.228-5.211-11.421-7.825-18.57-7.825L 71.185,105.195 
		c-7.151,0-13.339,2.614-18.562,7.825c-5.223,5.228-7.837,11.421-7.837,18.57c0,7.146, 2.614,13.342, 7.837,18.568l 184.817,184.81
		c 5.219,5.227, 11.415,7.837, 18.561,7.837c 7.154,0, 13.341-2.611, 18.569-7.837l 184.817-184.81
		C 464.6,144.932, 467.212,138.736, 467.212,131.59z"  />
<glyph unicode="&#xe032;" d="M 459.388,297.842L 274.571,113.032c-5.228-5.226-11.415-7.837-18.569-7.837c-7.147,0-13.342,2.611-18.561,7.837
		L 52.623,297.842c-5.223,5.226-7.837,11.421-7.837,18.568c0,7.148, 2.614,13.342, 7.837,18.57c 5.223,5.211, 11.41,7.825, 18.562,7.825
		l 369.633,0 c 7.148,0, 13.342-2.614, 18.57-7.825c 5.213-5.228, 7.825-11.421, 7.825-18.57C 467.212,309.265, 464.6,303.069, 459.388,297.842z
		"  />
<glyph unicode="&#xe033;" d="M 329.842,20.612L 145.032,205.429c-5.226,5.228-7.837,11.415-7.837,18.569c0,7.147, 2.611,13.342, 7.837,18.561l 184.81,184.818
		c 5.226,5.222, 11.421,7.837, 18.568,7.837c 7.148,0, 13.342-2.614, 18.57-7.837c 5.211-5.223, 7.825-11.411, 7.825-18.562l0-369.633 
		c0-7.148-2.614-13.342-7.825-18.57c-5.228-5.213-11.421-7.825-18.57-7.825C 341.264,12.788, 335.068,15.4, 329.842,20.612z"  />
<glyph unicode="&#xe034;" d="M 163.59,12.788c-7.148,0-13.342,2.612-18.57,7.825c-5.211,5.228-7.825,11.421-7.825,18.57L 137.195,408.815 
		c0,7.151, 2.614,13.339, 7.825,18.562c 5.228,5.222, 11.421,7.837, 18.57,7.837c 7.146,0, 13.342-2.614, 18.568-7.837l 184.81-184.818
		c 5.226-5.219, 7.837-11.415, 7.837-18.561c0-7.153-2.611-13.341-7.837-18.569L 182.158,20.612
		C 176.931,15.4, 170.735,12.788, 163.59,12.788z"  />
<glyph unicode="&#x20;" horiz-adv-x="256" />
</font>
</defs>
</svg>
