<?xml version="1.0" encoding="utf-8"?>
<!-- Generator: Adobe Illustrator 16.0.0, SVG Export Plug-In . SVG Version: 6.00 Build 0)  -->
<!DOCTYPE svg PUBLIC "-//W3C//DTD SVG 1.1//EN" "http://www.w3.org/Graphics/SVG/1.1/DTD/svg11.dtd">
<svg version="1.1" id="Layer_1" xmlns="http://www.w3.org/2000/svg" xmlns:xlink="http://www.w3.org/1999/xlink" x="0px" y="0px"
	 width="600px" height="600px" viewBox="0 0 600 600" enable-background="new 0 0 600 600" xml:space="preserve">
<g>
	<path fill-rule="evenodd" clip-rule="evenodd" fill="#1E3567" d="M456.112,292.299l-0.578-3.531l-16.377-38.591h28.964
		L479.55,286.2C473.065,296.409,465.229,292.299,456.112,292.299z M282.346,293.521l-16.311-43.345h28.962l16.374,46.938h-23.309
		C286.071,297.114,284.208,293.521,282.346,293.521z M216.397,250.177h35.318l16.053,41.226
		c-33.584-3.148-38.209-5.33-42.896-17.468L216.397,250.177z M227.764,170.485l19.65,59.784h-35.895l-13.166-31.916l-8.732-27.868
		H227.764z M215.755,81.418c8.989,1.092,19.135,2.312,30.116,3.597l20.869,65.501h-28.959L215.755,81.418z M335.709,95.29
		l17.593,55.226h-28.959l-18.688-58.631c0.9,0.129,1.734,1.8,2.634,1.862C317.278,94.775,326.463,94.262,335.709,95.29z
		 M507.737,179.026l-4.364-13.423h7.387L507.737,179.026z M415.205,170.485h28.964l19.646,59.784h-28.959L415.205,170.485z
		 M377.254,230.27h-28.959l-19.65-59.784h28.962L377.254,230.27z M420.536,230.27h-28.962l-19.647-59.784h28.959L420.536,230.27z
		 M472.037,112.24l12.585,38.275h-30.438l-13.611-42.706C452.835,109.415,463.562,110.892,472.037,112.24z M425.672,105.885
		l14.191,44.631h-28.959l-15.41-48.29C406.022,103.508,416.168,104.728,425.672,105.885z M380.659,100.491l15.926,50.024h-28.963
		l-17.017-53.492L380.659,100.491z M285.366,170.485h28.959l19.65,59.784h-28.964L285.366,170.485z M290.692,230.27h-28.959
		l-19.65-59.784h28.962L290.692,230.27z M290.821,90.859l19.202,60.361h-28.963l-20.29-63.767L290.821,90.859z M325.691,297.114
		l-16.374-46.938h28.959l16.374,46.938H325.691z M368.974,297.114l-16.377-46.938h28.962l16.373,46.938H368.974z M412.381,296.409
		l-16.502-46.232h28.959l16.377,46.938L412.381,296.409z M478.138,232.194l-19.649-61.709h30.562l12.718,38.914
		c-1.794,7.384-3.663,10.21-5.519,17.979L478.138,232.194z M492.329,252.873c-1.285,5.393-2.766,10.4-4.309,14.896l-5.58-17.593
		h10.528L492.329,252.873z M515.701,127.525c1.8,2.502,0.902,6.999-0.514,14.706l-1.543,8.284h-14.699l-11.626-35.513
		C507.932,119.305,514.033,125.148,515.701,127.525z M537.989,111.857c-8.674-12.009-26.333-19.201-60.944-24.66
		c-33.971-5.33-103.964-13.291-165.674-20.29c-46.493-5.268-90.349-10.274-113.533-13.485c-34.289-4.816-43.664-0.386-47.966,4.044
		c-4.882,4.945-4.111,11.943,0.385,17.211c4.559,5.331,13.419,5.521,19.199,1.54l-3.788,2.634c0.191-0.065,6.356-1.8,28.32,1.282
		c2.116,0.323,4.43-0.963,6.869-0.64l22.604,71.022h-38.595l-3.402-9.57c-16.825-47.584-24.529-57.921-40.583-71.727L81.675,17.075
		l-2.954-2.567c-5.587-5.012-14.191-4.56-19.264,1.027c-5.011,5.585-4.559,14.126,1.091,19.07l2.891,2.634l59.527,52.4
		c10.529,9.052,16.311,15.411,32.748,61.838l16.891,47.967l26.777,74.875c5.97,15.478,14.448,27.612,30.887,35.381
		c-48.418,19.717-60.618,28.644-82.965,61.39c-12.137,17.788-15.22,31.722-9.44,42.449c8.412,15.603,31.658,15.987,39.299,15.987
		h8.542h27.292h208.183h27.291h43.477c5.646,0,10.272-3.788,10.272-9.375s-4.627-10.532-10.272-10.532H177.163
		c-18.11,0-20.936-4.364-21.192-4.879c-0.32-0.515-2.503-6.421,8.35-22.283c21.96-32.3,28.896-45.848,99.724-73.652
		c7.192,0.705,15.091,1.152,24.018,1.152h168.05c30.504,0,51.625-23.371,62.8-69.479l3.085-3.53
		c8.348-34.422,16.242-66.978,20.099-88.424C544.084,137.544,546.529,123.801,537.989,111.857z"/>
	<path fill="#1E3567" d="M492.649,526.174c0-34.743-34.484-62.869-77.058-62.869c-42.574,0-77.059,28.126-77.059,62.869
		c0,34.673,34.484,62.799,77.059,62.799C458.165,588.973,492.649,560.847,492.649,526.174z"/>
	<path fill="#1E3567" d="M261.476,526.174c0-34.743-34.484-62.869-77.058-62.869s-77.057,28.126-77.057,62.869
		c0,34.673,34.484,62.799,77.057,62.799S261.476,560.847,261.476,526.174z"/>
</g>
</svg>
