<?xml version="1.0" encoding="utf-8"?>
<!-- Generator: Adobe Illustrator 16.0.0, SVG Export Plug-In . SVG Version: 6.00 Build 0)  -->
<!DOCTYPE svg PUBLIC "-//W3C//DTD SVG 1.1//EN" "http://www.w3.org/Graphics/SVG/1.1/DTD/svg11.dtd">
<svg version="1.1" id="Layer_1" xmlns="http://www.w3.org/2000/svg" xmlns:xlink="http://www.w3.org/1999/xlink" x="0px" y="0px"
	 width="600px" height="600px" viewBox="0 0 600 600" enable-background="new 0 0 600 600" xml:space="preserve">
<path fill-rule="evenodd" clip-rule="evenodd" fill="#010101" d="M189.888,362.359L36.828,532.134l64.246,58.05l158.201-175.205
	c82.594,38.885,184.644,21.063,249.166-50.458c78.546-87.208,71.799-221.656-15.396-300.204
	C405.85-14.243,271.415-6.954,192.591,80.24C119.698,161.212,120.239,282.691,189.888,362.359z M263.862,146.107
	c43.182-47.795,117.155-51.829,165.201-8.621c47.782,43.182,51.565,116.892,8.37,164.924
	c-43.459,48.059-117.418,51.828-165.201,8.91C224.45,268.139,220.667,194.166,263.862,146.107z"/>
</svg>
