<?xml version="1.0" encoding="utf-8"?>
<!-- Generator: Adobe Illustrator 16.0.0, SVG Export Plug-In . SVG Version: 6.00 Build 0)  -->
<!DOCTYPE svg PUBLIC "-//W3C//DTD SVG 1.1//EN" "http://www.w3.org/Graphics/SVG/1.1/DTD/svg11.dtd">
<svg version="1.1" id="Layer_1" xmlns="http://www.w3.org/2000/svg" xmlns:xlink="http://www.w3.org/1999/xlink" x="0px" y="0px"
	 width="600px" height="600px" viewBox="0 0 600 600" enable-background="new 0 0 600 600" xml:space="preserve">
<path fill-rule="evenodd" clip-rule="evenodd" fill="#939BA0" d="M591.333,322.166V466.25c0,2.981-1.138,5.641-3.353,7.793
	c-2.22,2.214-4.817,3.291-7.854,3.291h-78.413v55.416c0,9.246-3.29,17.101-9.815,23.564c-6.586,6.457-14.503,9.686-23.812,9.686
	H131.913c-9.308,0-17.225-3.229-23.812-9.686c-6.525-6.464-9.818-14.318-9.818-23.564v-55.416H19.876
	c-3.04,0-5.638-1.077-7.854-3.291c-2.214-2.152-3.355-4.812-3.355-7.793V322.166c0-18.239,6.587-33.883,19.76-46.931
	c13.236-13.046,29.007-19.568,47.5-19.568h22.355V67.25c0-9.247,3.293-17.102,9.818-23.562c6.587-6.46,14.504-9.688,23.812-9.688
	h235.348c9.309,0,19.569,2.279,30.782,6.903c11.207,4.623,20.076,10.199,26.595,16.659l53.265,52.627
	c6.457,6.46,12.098,15.203,16.786,26.286c4.626,11.083,6.964,21.279,6.964,30.525v88.605h22.42c18.431,0,34.265,6.522,47.438,19.63
	C584.747,288.221,591.333,303.862,591.333,322.166L591.333,322.166z M546.555,322.166c0-6.017-2.215-11.206-6.649-15.579
	c-4.496-4.435-9.691-6.587-15.765-6.587c-6.086,0-11.343,2.217-15.771,6.587c-4.435,4.373-6.655,9.562-6.655,15.579
	c0,6.019,2.221,11.208,6.655,15.58c4.429,4.373,9.686,6.588,15.771,6.588c6.073,0,11.269-2.152,15.765-6.588
	C544.34,333.374,546.555,328.185,546.555,322.166z M143.124,300h313.75V167h-56.048c-9.309,0-17.226-3.228-23.75-9.688
	c-6.52-6.46-9.815-14.315-9.815-23.562V78.333H143.124V300L143.124,300z M143.124,521.666h313.75V433h-313.75V521.666z"/>
</svg>
