<?xml version="1.0" encoding="utf-8"?>
<!-- Generator: Adobe Illustrator 16.0.0, SVG Export Plug-In . SVG Version: 6.00 Build 0)  -->
<!DOCTYPE svg PUBLIC "-//W3C//DTD SVG 1.1//EN" "http://www.w3.org/Graphics/SVG/1.1/DTD/svg11.dtd">
<svg version="1.1" id="Layer_1" xmlns="http://www.w3.org/2000/svg" xmlns:xlink="http://www.w3.org/1999/xlink" x="0px" y="0px"
	 width="600px" height="600px" viewBox="0 0 600 600" enable-background="new 0 0 600 600" xml:space="preserve">
<path fill-rule="evenodd" clip-rule="evenodd" fill="#010101" d="M454.35,568.64c0,11.443-9.121,20.694-20.441,20.694h-20.375
	c-11.326,0-20.442-9.251-20.442-20.694v-41.32h61.259V568.64z M209.171,568.64c0,11.443-9.121,20.694-20.377,20.694h-20.442
	c-11.324,0-20.442-9.251-20.442-20.694v-41.32h61.261V568.64z M495.234,484.734c0,11.382-9.184,20.632-20.442,20.632H127.468
	c-11.259,0-20.442-9.25-20.442-20.632V464.04h388.209V484.734z M454.35,93.316H147.91c-22.583,0-40.884,18.553-40.884,41.323V31.36
	c0-11.446,9.183-20.694,20.442-20.694h347.324c11.259,0,20.442,9.248,20.442,20.694V134.64
	C495.234,111.869,476.93,93.316,454.35,93.316z M433.908,382.652h-20.375c-11.326,0-20.442,9.238-20.442,20.688
	c0,11.388,9.116,20.632,20.442,20.632h20.375c11.32,0,20.441-9.244,20.441-20.632C454.35,391.891,445.229,382.652,433.908,382.652z
	 M433.908,176.027c0-11.447-9.122-20.694-20.375-20.694h-224.74c-11.324,0-20.442,9.248-20.442,20.694v103.279h265.557V176.027z
	 M147.91,403.341c0,11.388,9.118,20.632,20.442,20.632h20.442c11.256,0,20.377-9.244,20.377-20.632
	c0-11.45-9.121-20.688-20.377-20.688h-20.442C157.093,382.652,147.91,391.891,147.91,403.341z M229.613,341.326h143.036v-20.633
	H229.613V341.326z M229.613,382.652h143.036v-20.639H229.613V382.652z M229.613,423.973h143.036v-20.632H229.613V423.973z
	 M534.797,237.983h-20.441h-40.381l-0.319,25.976c12.272,7.046,20.319,20.442,20.319,36.041l0.885,143.346H107.025V300
	c0-15.221,8.302-28.43,20.442-35.602v-26.416H86.645H66.203c-11.32,0-20.442-9.248-20.442-20.632v-20.694
	c0-11.385,9.122-20.629,20.442-20.629h20.442v41.323h40.823v-62.018c0-22.831,18.301-41.323,40.884-41.323h265.557
	c22.579,0,40.884,18.492,40.884,41.323l-0.633,62.018h40.196v-41.323h20.441c11.32,0,20.442,9.244,20.442,20.629v20.694
	C555.239,228.735,546.117,237.983,534.797,237.983z"/>
</svg>
