<?xml version="1.0" encoding="utf-8"?>
<!-- Generator: Adobe Illustrator 16.0.0, SVG Export Plug-In . SVG Version: 6.00 Build 0)  -->
<!DOCTYPE svg PUBLIC "-//W3C//DTD SVG 1.1//EN" "http://www.w3.org/Graphics/SVG/1.1/DTD/svg11.dtd">
<svg version="1.1" id="Layer_1" xmlns="http://www.w3.org/2000/svg" xmlns:xlink="http://www.w3.org/1999/xlink" x="0px" y="0px"
	 width="600px" height="600px" viewBox="0 0 600 600" enable-background="new 0 0 600 600" xml:space="preserve">
<path fill-rule="evenodd" clip-rule="evenodd" fill="#888888" d="M370.465,590.266l1.799-11.407
	c30.428-0.606,77.873-25.022,77.873-55.05l-23.02-210.191c0-30.429-25.227-55.051-56.057-55.051H228.939
	c-30.829,0-56.057,24.622-56.057,55.051l-23.019,210.191c0,30.027,47.445,54.443,77.874,55.05l1.798,11.407H370.465z
	 M196.107,114.234c0,57.65,46.438,104.49,103.894,104.49c57.457,0,103.894-46.84,103.894-104.49c0-57.66-46.438-104.5-103.894-104.5
	C242.545,9.734,196.107,56.574,196.107,114.234z"/>
</svg>
