<?xml version="1.0" encoding="utf-8"?>
<!-- Generator: Adobe Illustrator 17.1.0, SVG Export Plug-In . SVG Version: 6.00 Build 0)  -->
<!DOCTYPE svg PUBLIC "-//W3C//DTD SVG 1.1//EN" "http://www.w3.org/Graphics/SVG/1.1/DTD/svg11.dtd">
<svg version="1.1" id="Layer_1" xmlns="http://www.w3.org/2000/svg" xmlns:xlink="http://www.w3.org/1999/xlink" x="0px" y="0px"
	 viewBox="0 0 600 600" enable-background="new 0 0 600 600" xml:space="preserve">
<path fill-rule="evenodd" clip-rule="evenodd" d="M588.6,35.5v168.2c0,6.5-2.4,12.2-7.2,16.9c-4.8,4.8-10.4,7.2-16.9,7.2
	s-12.2-2.4-16.9-7.2l-54.1-54.1L368.8,291.3c-2.5,2.5-5.4,3.8-8.7,3.8s-6.1-1.3-8.7-3.8l-42.8-42.8c-2.5-2.5-3.8-5.4-3.8-8.7
	s1.3-6.1,3.8-8.7l124.7-124.7l-54.1-54.2c-4.8-4.6-7.2-10.3-7.2-16.8s2.4-12.2,7.2-16.9c4.8-4.8,10.4-7.2,16.9-7.2h168.2
	c6.5,0,12.2,2.4,16.9,7.2C586.2,23.4,588.6,29,588.6,35.5z M295.1,360.1c0,3.3-1.3,6.1-3.8,8.7L166.6,493.5l54.1,54.1
	c4.8,4.8,7.2,10.4,7.2,16.9c0,6.5-2.4,12.2-7.2,16.9c-4.8,4.8-10.4,7.2-16.9,7.2H35.5c-6.5,0-12.2-2.4-16.9-7.2
	c-4.8-4.8-7.2-10.4-7.2-16.9V396.2c0-6.5,2.4-12.2,7.2-16.9s10.4-7.2,16.9-7.2s12.2,2.4,16.8,7.2l54.2,54.1l124.7-124.7
	c2.5-2.5,5.4-3.8,8.7-3.8s6.1,1.3,8.7,3.8l42.8,42.8C293.9,353.9,295.1,356.8,295.1,360.1z"/>
</svg>
